<svg xmlns="http://www.w3.org/2000/svg" viewBox="0 0 1200 720" role="img" aria-label="Folded paper crown above Markdown pages">
  <defs>
    <linearGradient id="bg" x1="0" y1="0" x2="1" y2="1">
      <stop offset="0" stop-color="#f7efe1"/>
      <stop offset="0.52" stop-color="#fdf8ee"/>
      <stop offset="1" stop-color="#dcefe9"/>
    </linearGradient>
    <linearGradient id="crown" x1="0" y1="0" x2="1" y2="1">
      <stop offset="0" stop-color="#ffe08a"/>
      <stop offset="0.58" stop-color="#f4b842"/>
      <stop offset="1" stop-color="#c67c27"/>
    </linearGradient>
    <linearGradient id="page" x1="0" y1="0" x2="1" y2="1">
      <stop offset="0" stop-color="#ffffff"/>
      <stop offset="1" stop-color="#eadfc9"/>
    </linearGradient>
    <filter id="shadow" x="-20%" y="-20%" width="140%" height="150%">
      <feDropShadow dx="0" dy="18" stdDeviation="18" flood-color="#2b2a30" flood-opacity="0.18"/>
    </filter>
  </defs>

  <rect width="1200" height="720" rx="40" fill="url(#bg)"/>
  <circle cx="246" cy="172" r="72" fill="#e75555" opacity="0.14"/>
  <circle cx="966" cy="208" r="96" fill="#2aa7a1" opacity="0.14"/>
  <circle cx="898" cy="558" r="120" fill="#5f66d8" opacity="0.1"/>

  <g stroke="#1f2937" stroke-width="10" stroke-linecap="round" stroke-linejoin="round" filter="url(#shadow)">
    <path d="M270 474 L774 386 L930 488 L420 584 Z" fill="#d8c8aa"/>
    <path d="M244 420 L754 334 L946 446 L424 540 Z" fill="url(#page)"/>
    <path d="M300 404 L420 382 M470 374 L682 338 M770 364 L864 420" fill="none" opacity="0.34"/>
    <path d="M372 454 L430 444 M464 438 L620 410 M662 402 L802 380" fill="none" opacity="0.28"/>

    <path d="M342 366 L424 162 L532 318 L620 118 L704 320 L824 168 L858 370 Z" fill="url(#crown)"/>
    <path d="M342 366 C454 410 730 412 858 370 L838 432 C688 470 510 468 364 426 Z" fill="#f0ad3d"/>
    <path d="M424 162 L454 350 M620 118 L620 386 M824 168 L788 354" fill="none" opacity="0.28"/>
    <path d="M386 380 C498 418 704 420 824 384" fill="none" stroke="#7b4b1f" opacity="0.42"/>
  </g>

  <g fill="none" stroke-linecap="round" stroke-linejoin="round">
    <path d="M224 256 L192 236 M224 256 L188 274 M224 256 L208 214" stroke="#e75555" stroke-width="12"/>
    <path d="M936 300 L988 268 M936 300 L996 322 M936 300 L950 244" stroke="#2aa7a1" stroke-width="12"/>
    <path d="M560 92 L560 48 M560 92 L522 70 M560 92 L598 70" stroke="#5f66d8" stroke-width="10"/>
    <path d="M724 182 L756 150 M724 182 L766 190 M724 182 L724 136" stroke="#e75555" stroke-width="9"/>
  </g>

  <g fill="#1f2937" opacity="0.85">
    <circle cx="468" cy="318" r="13"/>
    <circle cx="620" cy="294" r="15"/>
    <circle cx="770" cy="318" r="13"/>
  </g>
</svg>
